<svg width="72" height="72" viewBox="0 0 72 72" fill="none" xmlns="http://www.w3.org/2000/svg">
<path opacity="0.6" d="M35.0025 6H25.0005C22.3482 6 19.8045 7.05362 17.9291 8.92908C16.0536 10.8045 15 13.3482 15 16.0005C15 18.6528 16.0536 21.1965 17.9291 23.0719C19.8045 24.9474 22.3482 26.001 25.0005 26.001H35.0025V6Z" fill="#FFFFFC"/>
<path opacity="0.4" d="M35.001 26.001H24.999C22.3471 26.001 19.8038 27.0544 17.9286 28.9296C16.0535 30.8048 15 33.3481 15 36C15 38.6519 16.0535 41.1952 17.9286 43.0703C19.8038 44.9455 22.3471 45.999 24.999 45.999H35.001V26.001Z" fill="#FFFFFC"/>
<path d="M54.9932 36C54.9932 38.6523 53.9396 41.196 52.0641 43.0714C50.1886 44.9469 47.645 46.0005 44.9927 46.0005C42.3404 46.0005 39.7967 44.9469 37.9213 43.0714C36.0458 41.196 34.9922 38.6523 34.9922 36C34.9922 33.3477 36.0458 30.804 37.9213 28.9286C39.7967 27.0531 42.3404 25.9995 44.9927 25.9995C47.645 25.9995 50.1886 27.0531 52.0641 28.9286C53.9396 30.804 54.9932 33.3477 54.9932 36Z" fill="#FFFFFC"/>
<path opacity="0.2" d="M24.996 46.002H34.998V56.001C34.9974 57.9784 34.4106 59.9112 33.3116 61.555C32.2127 63.1989 30.651 64.48 28.8241 65.2365C26.9971 65.9929 24.9869 66.1907 23.0476 65.8047C21.1082 65.4188 19.3268 64.4666 17.9286 63.0684C16.5304 61.6702 15.5782 59.8888 15.1923 57.9495C14.8064 56.0101 15.0041 53.9999 15.7606 52.173C16.517 50.346 17.7981 48.7843 19.442 47.6854C21.0859 46.5865 23.0186 46.0026 24.996 46.002Z" fill="#FFFFFC"/>
<path opacity="0.8" d="M34.9922 6H44.9912C47.6435 6 50.1871 7.05362 52.0626 8.92908C53.9381 10.8045 54.9917 13.3482 54.9917 16.0005C54.9917 18.6528 53.9381 21.1965 52.0626 23.0719C50.1871 24.9474 47.6435 26.001 44.9912 26.001H34.9922V6Z" fill="#FFFFFC"/>
</svg>
