<svg width="72" height="72" viewBox="0 0 72 72" fill="none" xmlns="http://www.w3.org/2000/svg">
<g clip-path="url(#clip0_343_175)">
<path d="M70.638 32.7899L39.201 1.35592C38.3295 0.487567 37.1493 0 35.919 0C34.6887 0 33.5085 0.487567 32.637 1.35592L26.124 7.88092L34.404 16.1609C35.3809 15.83 36.431 15.7796 37.435 16.0157C38.4391 16.2517 39.3568 16.7646 40.0839 17.4961C40.8111 18.2276 41.3184 19.1484 41.5484 20.1538C41.7784 21.1593 41.7218 22.209 41.385 23.1839L49.359 31.1639C50.5391 30.7536 51.8236 30.7562 53.002 31.1714C54.1805 31.5865 55.183 32.3896 55.8453 33.449C56.5077 34.5084 56.7906 35.7613 56.6477 37.0025C56.5049 38.2438 55.9447 39.3997 55.059 40.2809C54.5471 40.7936 53.9392 41.2003 53.27 41.4778C52.6008 41.7553 51.8835 41.8982 51.159 41.8982C50.4345 41.8982 49.7172 41.7553 49.048 41.4778C48.3788 41.2003 47.7709 40.7936 47.259 40.2809C46.4933 39.5108 45.9704 38.5331 45.7549 37.4687C45.5395 36.4043 45.641 35.3001 46.047 34.2929L38.58 26.8649V46.4399C39.108 46.6979 39.606 47.0489 40.044 47.4839C41.07 48.5227 41.6453 49.9239 41.6453 51.3839C41.6453 52.8439 41.07 54.2451 40.044 55.2839C39.5302 55.7981 38.9202 56.2061 38.2487 56.4844C37.5772 56.7627 36.8574 56.906 36.1305 56.906C35.4036 56.906 34.6838 56.7627 34.0123 56.4844C33.3408 56.2061 32.7308 55.7981 32.217 55.2839C31.7041 54.7728 31.2972 54.1654 31.0196 53.4967C30.7419 52.828 30.599 52.111 30.599 51.3869C30.599 50.6628 30.7419 49.9459 31.0196 49.2771C31.2972 48.6084 31.7041 48.0011 32.217 47.4899C32.763 46.9499 33.378 46.5419 34.032 46.2719V26.5049C33.3585 26.2296 32.7464 25.8235 32.2309 25.31C31.7155 24.7965 31.307 24.1859 31.0291 23.5135C30.7512 22.8411 30.6095 22.1203 30.612 21.3927C30.6146 20.6652 30.7614 19.9453 31.044 19.2749L22.908 11.0999L1.35 32.6429C-0.45 34.4579 -0.45 37.3949 1.35 39.2099L32.79 70.6409C33.2205 71.0718 33.7316 71.4136 34.2942 71.6468C34.8569 71.88 35.46 72 36.069 72C36.678 72 37.2811 71.88 37.8438 71.6468C38.4064 71.4136 38.9175 71.0718 39.348 70.6409L70.638 39.3509C71.0697 38.9206 71.4122 38.4093 71.6459 37.8464C71.8796 37.2835 71.9999 36.6799 71.9999 36.0704C71.9999 35.4609 71.8796 34.8574 71.6459 34.2944C71.4122 33.7315 71.0697 33.2202 70.638 32.7899Z" fill="#FFFFFC"/>
</g>
<defs>
<clipPath id="clip0_343_175">
<rect width="72" height="72" fill="white"/>
</clipPath>
</defs>
</svg>
