<svg width="48" height="48" viewBox="0 0 48 48" fill="none" xmlns="http://www.w3.org/2000/svg">
<path fill-rule="evenodd" clip-rule="evenodd" d="M18.5006 35.4839C18.5006 35.4839 16.8916 36.4191 19.6417 36.7308C22.9745 37.1081 24.6738 37.0589 28.3432 36.3617C28.3432 36.3617 29.3119 36.9687 30.6581 37.4937C22.4327 41.0128 12.0401 37.2886 18.5006 35.4839ZM17.4991 30.882C17.4991 30.882 15.7013 32.211 18.4514 32.4981C22.0059 32.8672 24.8215 32.8918 29.6812 31.9567C29.6812 31.9567 30.3544 32.6375 31.4134 33.0067C21.4559 35.9187 10.3737 33.2445 17.4991 30.882ZM25.9708 23.081C27.9984 25.4107 25.4372 27.5106 25.4372 27.5106C25.4372 27.5106 30.5842 24.8528 28.2201 21.5306C26.0118 18.4298 24.3208 16.8877 33.482 11.5803C33.4902 11.5803 19.0999 15.1733 25.9708 23.081ZM36.8559 38.88C36.8559 38.88 38.0462 39.8561 35.5506 40.619C30.7977 42.0546 15.7835 42.4893 11.6133 40.6764C10.111 40.0284 12.9267 39.1178 13.8133 38.9292C14.7327 38.7323 15.2663 38.7651 15.2663 38.7651C13.5998 37.5921 4.48785 41.0702 10.6364 42.0628C27.3991 44.7862 41.2066 40.8405 36.8559 38.88ZM19.2723 26.1161C19.2723 26.1161 11.6297 27.929 16.5633 28.5852C18.6484 28.8641 22.8021 28.7985 26.6686 28.4786C29.829 28.2161 33.0059 27.6419 33.0059 27.6419C33.0059 27.6419 31.8894 28.1176 31.085 28.6672C23.3275 30.7098 8.34609 29.7583 12.6558 27.6747C16.3087 25.9192 19.2722 26.1161 19.2722 26.1161M32.9812 33.7695C40.8701 29.6762 37.2171 25.7388 34.6724 26.2719C34.0484 26.4032 33.7694 26.518 33.7694 26.518C33.7694 26.518 33.9992 26.1571 34.4425 26.0012C39.4746 24.2294 43.3492 31.2184 32.8171 33.9828C32.8171 33.9746 32.9402 33.8679 32.9812 33.7695ZM28.2201 3C28.2201 3 32.5872 7.36406 24.0745 14.074C17.2528 19.4553 22.5148 22.5314 24.0745 26.0341C20.0932 22.4411 17.1708 19.283 19.1327 16.3381C22.0141 12.0315 29.985 9.93155 28.2201 3ZM20.0521 44.8682C27.6208 45.3522 39.2447 44.5975 39.5156 41.0209C39.5156 41.0209 38.9902 42.3744 33.2604 43.4573C26.7999 44.6713 18.829 44.5319 14.1088 43.7526C14.1088 43.7444 15.0775 44.5483 20.0521 44.8682Z" fill="#FFFFFC"/>
</svg>
