<svg width="48" height="48" viewBox="0 0 48 48" fill="none" xmlns="http://www.w3.org/2000/svg">
<path d="M1.5 1.5V46.5H46.5V1.5H1.5ZM25.989 36.597C25.989 40.977 23.421 42.969 19.674 42.969C16.293 42.969 14.3295 41.217 13.332 39.105L16.776 37.02C17.4405 38.184 18.045 39.18 19.494 39.18C20.883 39.18 21.759 38.6505 21.759 36.525V22.155H25.989V36.597ZM35.988 42.969C32.061 42.969 29.523 41.097 28.2855 38.649L31.728 36.6585C32.634 38.1255 33.813 39.2235 35.898 39.2235C37.6485 39.2235 38.7525 38.3475 38.7525 37.1295C38.7525 35.6805 37.6035 35.1645 35.6715 34.332L34.6215 33.867C31.5705 32.5695 29.547 30.9375 29.547 27.492C29.547 24.3225 31.953 21.9045 35.739 21.9045C38.427 21.9045 40.359 22.842 41.751 25.2855L38.466 27.393C37.746 26.103 36.957 25.578 35.748 25.578C34.512 25.578 33.72 26.361 33.72 27.393C33.72 28.671 34.5 29.175 36.315 29.958L37.3695 30.423C40.965 31.953 42.99 33.528 42.99 37.068C43.0005 40.884 40.011 42.963 35.9925 42.963L35.988 42.969Z" fill="#FFFFFC"/>
</svg>
