<svg width="48" height="48" viewBox="0 0 48 48" fill="none" xmlns="http://www.w3.org/2000/svg">
<g clip-path="url(#clip0_343_161)">
<path d="M24 48C37.2548 48 48 37.2548 48 24C48 10.7452 37.2548 0 24 0C10.7452 0 0 10.7452 0 24C0 37.2548 10.7452 48 24 48Z" fill="#FFFFFC"/>
<path d="M39.8712 42.0054L18.44 14.4001H14.4023V33.5923H17.6326V18.5023L37.3351 43.9588C38.223 43.3648 39.0703 42.7122 39.8712 42.0054Z" fill="url(#paint0_linear_343_161)"/>
<path d="M30.668 14.4001H33.8678V33.6001H30.668V14.4001Z" fill="url(#paint1_linear_343_161)"/>
</g>
<defs>
<linearGradient id="paint0_linear_343_161" x1="29.069" y1="31.0668" x2="38.5356" y2="42.8001" gradientUnits="userSpaceOnUse">
<stop stop-color="#A8A8A8"/>
<stop offset="1" stop-color="white" stop-opacity="0"/>
</linearGradient>
<linearGradient id="paint1_linear_343_161" x1="32.2678" y1="14.4001" x2="32.2142" y2="28.5001" gradientUnits="userSpaceOnUse">
<stop stop-color="#666161"/>
<stop offset="1" stop-color="white" stop-opacity="0"/>
</linearGradient>
<clipPath id="clip0_343_161">
<rect width="48" height="48" fill="white"/>
</clipPath>
</defs>
</svg>
