<svg width="48" height="48" viewBox="0 0 48 48" fill="none" xmlns="http://www.w3.org/2000/svg">
<g clip-path="url(#clip0_343_200)">
<path d="M32.2785 9.24722C32.2323 9.24666 32.1868 9.2583 32.1465 9.28097C32.1047 9.30553 32.0698 9.34036 32.0452 9.38216C32.0206 9.42396 32.0071 9.47135 32.0059 9.51984V16.6186C32.0052 16.6535 31.9959 16.6877 31.9786 16.7181C31.9614 16.7485 31.9369 16.7741 31.9073 16.7926C31.8773 16.8087 31.8438 16.8171 31.8098 16.8171C31.7758 16.8171 31.7423 16.8087 31.7123 16.7926L30.5625 16.1277C30.4781 16.0794 30.3825 16.054 30.2852 16.054C30.1879 16.054 30.0924 16.0794 30.0079 16.1277L25.4067 18.8033C25.3214 18.8513 25.2503 18.921 25.2007 19.0053C25.151 19.0896 25.1245 19.1855 25.1239 19.2833V24.6233C25.1239 24.8195 25.233 25.0058 25.4067 25.1041L30.0079 27.7797C30.0923 27.8279 30.1877 27.8532 30.2848 27.8532C30.382 27.8532 30.4774 27.8279 30.5618 27.7797L35.163 25.1041C35.3367 25.0058 35.4458 24.8195 35.4458 24.623V11.3105C35.4458 11.1031 35.337 10.9167 35.163 10.8192L32.418 9.27984C32.3746 9.25795 32.3268 9.2464 32.2782 9.24609L32.2785 9.24722ZM5.13228 15.911C5.04603 15.911 4.95978 15.9436 4.88403 15.9863L0.282776 18.6515C0.196118 18.7007 0.124203 18.7722 0.074486 18.8586C0.0247694 18.945 -0.00093886 19.0431 2.62034e-05 19.1427L0.0112762 26.3052C0.0112762 26.4035 0.0645262 26.5021 0.151526 26.546C0.191898 26.5725 0.239153 26.5866 0.287464 26.5866C0.335775 26.5866 0.38303 26.5725 0.423401 26.546L3.15903 24.9736C3.24406 24.9254 3.31484 24.8556 3.36423 24.7712C3.41362 24.6869 3.43985 24.591 3.44028 24.4932V21.1407C3.44028 20.9446 3.54903 20.7582 3.72303 20.66L4.88403 19.9831C4.96893 19.9316 5.06672 19.9052 5.16603 19.907C5.26353 19.907 5.3614 19.9283 5.43753 19.9831L6.59853 20.66C6.77215 20.7582 6.88128 20.9446 6.88128 21.1411V24.4932C6.88128 24.689 6.98928 24.8757 7.16253 24.9732L9.87603 26.546C9.91816 26.5728 9.96707 26.5871 10.017 26.5871C10.067 26.5871 10.1159 26.5728 10.158 26.546C10.2013 26.5225 10.2374 26.4876 10.2623 26.4451C10.2873 26.4026 10.3001 26.3541 10.2994 26.3048V19.1423C10.2994 18.9458 10.1907 18.7598 10.0167 18.6612L5.42665 15.9863C5.34932 15.9453 5.26475 15.9197 5.17765 15.911H5.13228ZM42.8948 15.9886V15.9893L42.894 15.9901C42.7972 15.9906 42.7021 16.016 42.618 16.064L38.0168 18.7381C37.8432 18.8371 37.7355 19.0223 37.7355 19.2192V24.5592C37.7355 24.7557 37.8432 24.9417 38.0168 25.0396L42.5843 27.6601C42.6666 27.7084 42.7602 27.7338 42.8556 27.7338C42.951 27.7338 43.0446 27.7084 43.1269 27.6601L45.8944 26.1102C45.9376 26.0867 45.9736 26.0519 45.9984 26.0095C46.0233 25.967 46.036 25.9186 46.0354 25.8695C46.036 25.8204 46.0232 25.7721 45.9985 25.7298C45.9737 25.6874 45.9378 25.6526 45.8948 25.6291L41.271 22.9535C41.2287 22.9286 41.1935 22.8933 41.1689 22.8508C41.1443 22.8084 41.131 22.7603 41.1304 22.7112V21.0406C41.1301 20.9918 41.143 20.9438 41.1677 20.9017C41.1925 20.8597 41.2282 20.8251 41.271 20.8017L42.7167 19.9718C42.7588 19.945 42.8077 19.9308 42.8577 19.9308C42.9076 19.9308 42.9565 19.945 42.9987 19.9718L44.4402 20.8017C44.4821 20.8262 44.5171 20.861 44.5419 20.9028C44.5666 20.9446 44.5803 20.992 44.5815 21.0406V22.3508C44.5815 22.4495 44.6355 22.5473 44.7222 22.5908C44.7644 22.6178 44.8134 22.6322 44.8635 22.6322C44.9136 22.6322 44.9627 22.6178 45.0049 22.5908L47.7387 20.9862C47.8227 20.9377 47.8923 20.8677 47.9404 20.7834C47.9885 20.6992 48.0134 20.6036 48.0124 20.5066V19.2072C48.0124 19.0107 47.9022 18.8247 47.7387 18.7261L43.1712 16.0636C43.0867 16.0149 42.9911 15.9889 42.8937 15.9882L42.8948 15.9886ZM17.6985 16.0763C17.6344 16.0876 17.571 16.1086 17.5133 16.1423L13.062 18.7272L17.9933 27.8247C18.0198 27.8145 18.0454 27.8023 18.0702 27.7883L22.6677 25.118C22.7333 25.0797 22.7892 25.0291 22.833 24.9698L17.6993 16.0748L17.6985 16.0763ZM18.1797 16.2076L21.2273 21.4913L22.6729 18.8172L22.665 18.812L18.18 16.2095L18.1797 16.2076ZM12.7722 18.9331C12.6867 19.0341 12.6396 19.1619 12.639 19.2942V24.6342C12.6395 24.7002 12.6509 24.7635 12.6732 24.824L14.37 21.881L12.7718 18.9316L12.7722 18.9331ZM22.9122 19.1138L21.4335 21.8465L22.9429 24.4628V19.2953C22.9424 19.2328 22.9322 19.1728 22.9122 19.1153V19.1138ZM30.2959 19.9775C30.3207 19.9775 30.3444 19.9831 30.3672 19.9943L31.9392 20.912C31.9827 20.9337 32.0052 20.9877 32.0052 21.0316V22.8665C32.0052 22.9212 31.9827 22.9655 31.9392 22.9872L30.366 23.9041C30.344 23.9148 30.3198 23.9204 30.2953 23.9204C30.2708 23.9204 30.2467 23.9148 30.2247 23.9041L28.6515 22.988C28.608 22.9662 28.5859 22.9111 28.5859 22.8672V21.0323C28.5859 20.9776 28.6084 20.9341 28.6515 20.9123L30.2247 19.9943C30.2466 19.9829 30.2711 19.9771 30.2959 19.9775ZM42.8772 20.72C42.8579 20.7201 42.8391 20.726 42.8232 20.7368L41.9434 21.2506C41.9268 21.2608 41.9131 21.2752 41.9037 21.2923C41.8943 21.3093 41.8895 21.3286 41.8898 21.3481V22.3756C41.8895 22.3951 41.8942 22.4143 41.9035 22.4314C41.9129 22.4485 41.9265 22.4628 41.943 22.4731L42.8232 22.9868C42.8392 22.9976 42.858 23.0033 42.8773 23.0033C42.8966 23.0033 42.9155 22.9976 42.9315 22.9868L43.8105 22.4731C43.827 22.4627 43.8405 22.4483 43.85 22.4312C43.8594 22.4142 43.8644 22.3951 43.8645 22.3756V21.3485C43.8648 21.3289 43.8599 21.3097 43.8504 21.2926C43.841 21.2755 43.8272 21.2611 43.8105 21.251L42.9315 20.7372C42.9154 20.7264 42.8965 20.7207 42.8772 20.7207V20.72ZM14.5647 22.2447L12.9094 25.115L12.9147 25.1187L17.5084 27.7891C17.5342 27.8038 17.5608 27.8163 17.5883 27.8266L14.5635 22.2466L14.5647 22.2447ZM23.7184 26.8647C23.5583 26.8647 23.3985 26.9026 23.2628 26.9791L18.9315 29.5028C18.7926 29.5843 18.6775 29.7008 18.5976 29.8406C18.5176 29.9804 18.4757 30.1387 18.4759 30.2997V35.3322C18.4759 35.66 18.6495 35.966 18.9315 36.1298L20.0719 36.7846C20.625 37.0576 20.82 37.0557 21.0694 37.0557C21.8832 37.0557 22.3504 36.5543 22.3504 35.6918V30.7268C22.35 30.6923 22.3363 30.6593 22.3121 30.6347C22.2879 30.6101 22.2551 30.5958 22.2207 30.5948H21.6675C21.6327 30.5953 21.5995 30.6094 21.5749 30.6341C21.5503 30.6587 21.5363 30.692 21.5359 30.7268V35.6956C21.5359 36.0777 21.1362 36.4602 20.496 36.1328L19.3125 35.4451C19.269 35.4233 19.2473 35.3675 19.2473 35.324V30.2877C19.2473 30.2442 19.269 30.1891 19.3125 30.1677L23.64 27.6571C23.6727 27.6353 23.7267 27.6353 23.7713 27.6571L28.0988 30.1677C28.1415 30.1902 28.1644 30.2337 28.1644 30.2877V35.3202C28.1644 35.3746 28.1419 35.4196 28.0984 35.4413L23.7672 37.964C23.7345 37.9857 23.6805 37.9857 23.6359 37.964L22.5304 37.2976C22.4974 37.2758 22.4535 37.2653 22.4213 37.2863C22.1175 37.4618 22.0639 37.4843 21.771 37.5826C21.7058 37.6043 21.5974 37.6471 21.8142 37.7671L23.2587 38.6307C23.3997 38.7068 23.5512 38.75 23.7143 38.75C23.877 38.75 24.039 38.7068 24.1692 38.6525L28.5004 36.1298C28.6395 36.0482 28.7548 35.9315 28.8347 35.7915C28.9147 35.6514 28.9565 35.4928 28.956 35.3315V30.299C28.956 29.9712 28.7824 29.6667 28.5004 29.5028L24.1692 26.9791C24.0296 26.9032 23.8731 26.8639 23.7143 26.8651V26.8643L23.7184 26.8647ZM30.4797 29.1635C30.2574 29.1644 30.0446 29.2535 29.888 29.4112C29.7314 29.5689 29.6438 29.7823 29.6445 30.0046C29.6439 30.2268 29.7315 30.4401 29.8881 30.5978C30.0447 30.7554 30.2575 30.8445 30.4797 30.8453C30.936 30.8453 31.3159 30.4628 31.3159 30.0046C31.3147 29.7828 31.2264 29.5703 31.0699 29.413C30.9135 29.2557 30.7015 29.1662 30.4797 29.1638V29.1635ZM30.4684 29.3045H30.4695C30.5621 29.3033 30.6539 29.3206 30.7397 29.3553C30.8255 29.39 30.9035 29.4414 30.9693 29.5066C31.035 29.5718 31.0871 29.6494 31.1225 29.7349C31.1579 29.8204 31.176 29.912 31.1757 30.0046C31.1757 30.3871 30.8603 30.7137 30.4695 30.7137C30.09 30.7137 29.7743 30.398 29.7743 30.005C29.7743 29.612 30.1005 29.3052 30.4688 29.3045M30.165 29.5347V30.4947H30.3503V30.1148H30.5145C30.5798 30.1148 30.6008 30.1366 30.612 30.191C30.612 30.2022 30.6443 30.4418 30.6443 30.4853H30.8389C30.8164 30.4418 30.8067 30.3098 30.7958 30.2333C30.7853 30.1133 30.7748 30.0267 30.6443 30.0158C30.7095 29.9937 30.8168 29.9615 30.8168 29.7867C30.8168 29.5355 30.5993 29.5355 30.4909 29.5355L30.165 29.5347ZM30.3293 29.6877H30.48C30.5348 29.6877 30.6222 29.6877 30.6222 29.819C30.6222 29.8621 30.6 29.9502 30.48 29.9502H30.3293V29.6877ZM24.903 30.4415C23.6655 30.4415 22.9264 30.9661 22.9264 31.8507C22.9264 32.801 23.6644 33.0616 24.8475 33.1816C26.2688 33.3241 26.3775 33.5318 26.3775 33.8153C26.3775 34.3066 25.9868 34.5136 25.0752 34.5136C23.9247 34.5136 23.6745 34.2297 23.5875 33.6511C23.5875 33.5855 23.535 33.5423 23.4694 33.5423H22.9054C22.8881 33.5423 22.871 33.5457 22.855 33.5523C22.839 33.5589 22.8245 33.5686 22.8122 33.5808C22.8 33.593 22.7903 33.6075 22.7837 33.6235C22.7771 33.6395 22.7737 33.6567 22.7738 33.674C22.7738 34.4165 23.1657 35.2895 25.065 35.2895C26.4323 35.2895 27.2232 34.7435 27.2232 33.782C27.2232 32.8433 26.5932 32.5913 25.2589 32.4166C23.9127 32.2418 23.772 32.1432 23.772 31.8271C23.772 31.5646 23.892 31.2158 24.8895 31.2158C25.7802 31.2158 26.1169 31.4127 26.247 32.0131C26.2533 32.0402 26.2682 32.0644 26.2895 32.0822C26.3109 32.1 26.3374 32.1104 26.3652 32.1117H26.9408C26.9734 32.1117 27.0072 32.0903 27.0293 32.0686C27.0492 32.0393 27.0603 32.005 27.0615 31.9696C26.9753 30.9215 26.2917 30.4411 24.9023 30.4411L24.903 30.4415Z" fill="#FFFFFC"/>
</g>
<defs>
<clipPath id="clip0_343_200">
<rect width="48" height="48" fill="white"/>
</clipPath>
</defs>
</svg>
