<svg width="48" height="48" viewBox="0 0 48 48" fill="none" xmlns="http://www.w3.org/2000/svg">
<g clip-path="url(#clip0_343_173)">
<path d="M0.019125 27.5978L12.6822 27.5976C12.7821 28.5789 13.0502 29.5356 13.4746 30.426L2.61938 36.9654C1.19531 34.5097 0.296812 31.3859 0.019125 27.5978ZM12.3756 46.048L17.195 34.3442C16.6987 34.0798 16.2296 33.7672 15.7945 33.4109L6.84422 42.3614C8.67141 44.0074 10.5532 45.2405 12.3756 46.048ZM6.22519 41.7686L15.1581 32.8356C14.6956 32.3703 14.2691 31.8184 13.8768 31.1841L3.048 37.7075C4.03153 39.3077 5.12438 40.6931 6.22519 41.7686ZM35.6624 42.3618L26.7065 33.4063C26.6087 33.4856 26.5091 33.5626 26.408 33.6375L32.9433 44.4863C33.8555 43.9186 34.7611 43.1903 35.6624 42.3618ZM32.218 44.943L25.6963 34.1169C23.2622 35.4762 20.6978 35.7624 17.9708 34.7109L13.1613 46.3906C19.7425 49.0594 26.5639 48.2949 32.218 44.943ZM16.0981 19.8441L9.56297 8.99532C8.61009 9.60685 7.70494 10.3178 6.84366 11.1197L15.7993 20.0754C15.8977 19.9968 15.9974 19.9197 16.0981 19.8441ZM0 26.7409L12.6339 26.7407C12.6612 24.5059 13.4505 22.458 15.1584 20.6464L6.22528 11.7132C2.1015 16.0831 0.048 21.099 0 26.7409ZM21.2526 18.1217L21.2531 5.48813C17.0599 5.51382 13.3777 6.6437 10.2881 8.53866L16.8097 19.3649C18.0356 18.6452 19.4969 18.148 21.2525 18.1218M38.7278 14.642L29.4045 23.9656C29.6149 24.5874 29.7549 25.2308 29.822 25.8837H42.4867C42.4039 22.0419 41.1363 18.2957 38.7278 14.642ZM42.5041 26.7406H29.8717C29.8278 29.1069 28.9435 31.2635 27.3475 32.8357L36.281 41.7687C40.3891 37.7259 42.3861 32.6799 42.5041 26.7406ZM22.11 5.50688L22.1094 18.1713C22.7734 18.2465 23.411 18.3909 24.0281 18.5889L33.3483 9.26879C30.0547 6.96488 26.1727 5.67235 22.11 5.50688ZM40.4016 0.243477C36.7298 1.31757 35.1953 5.41688 36.7657 8.55648L23.8882 21.4341C20.8501 19.9194 16.8662 21.2869 15.6575 24.8123C14.1841 29.1098 17.9302 33.4187 22.3844 32.5497C26.3228 31.7814 28.226 27.4696 26.5531 24.1113L39.4427 11.2219C42.6921 12.8368 46.8989 11.122 47.8236 7.31682C48.8951 2.9071 44.7619 -1.03199 40.4016 0.243477Z" fill="#FFFFFC"/>
</g>
<defs>
<clipPath id="clip0_343_173">
<rect width="48" height="48" fill="white"/>
</clipPath>
</defs>
</svg>
