<svg width="72" height="72" viewBox="0 0 72 72" fill="none" xmlns="http://www.w3.org/2000/svg">
<path d="M21.03 30.621H18.198L16.653 38.565H19.167C20.835 38.565 22.077 38.251 22.893 37.623C23.709 36.993 24.259 35.944 24.543 34.476C24.817 33.066 24.693 32.071 24.171 31.491C23.647 30.911 22.6 30.621 21.03 30.621ZM36 17.064C16.119 17.064 0 25.542 0 36C0 46.458 16.119 54.939 36 54.939C55.881 54.939 72 46.458 72 36C72 25.542 55.881 17.064 36 17.064ZM26.22 39.417C25.437 40.167 24.495 40.731 23.469 41.07C22.459 41.396 21.174 41.56 19.614 41.562H16.071L15.09 46.605H10.956L14.646 27.627H22.596C24.986 27.627 26.73 28.255 27.828 29.511C28.926 30.765 29.256 32.517 28.818 34.767C28.652 35.6578 28.3431 36.5159 27.903 37.308C27.473 38.074 26.912 38.777 26.22 39.417ZM38.292 41.562L39.921 33.165C40.109 32.209 40.041 31.558 39.717 31.212C39.397 30.864 38.71 30.69 37.656 30.69H34.38L32.268 41.565H28.164L31.854 22.584H35.955L34.974 27.63H38.628C40.928 27.63 42.514 28.031 43.386 28.833C44.694 30.036 44.52 30.933 44.175 32.73L42.459 41.562H38.292ZM61.083 34.767C60.917 35.6578 60.6081 36.5159 60.168 37.308C59.74 38.074 59.179 38.777 58.485 39.417C57.7016 40.1647 56.762 40.7292 55.734 41.07C54.726 41.396 53.44 41.56 51.876 41.562H48.336L47.355 46.608H43.221L46.911 27.63H54.858C57.248 27.63 58.992 28.258 60.09 29.514C61.19 30.766 61.521 32.517 61.083 34.767ZM53.298 30.621H50.469L48.921 38.565H51.435C53.105 38.565 54.347 38.251 55.161 37.623C55.975 36.993 56.526 35.944 56.814 34.476C57.088 33.066 56.963 32.071 56.439 31.491C55.653 30.621 54.867 30.621 53.298 30.621Z" fill="#FFFFFC"/>
</svg>
