<svg width="72" height="72" viewBox="0 0 72 72" fill="none" xmlns="http://www.w3.org/2000/svg">
<path d="M33.3132 31.314C32.3955 31.8439 31.6556 32.634 31.1869 33.5843C30.7183 34.5347 30.542 35.6027 30.6803 36.6533C30.8186 37.7039 31.2653 38.6899 31.9639 39.4866C32.6626 40.2833 33.5818 40.855 34.6053 41.1293C35.6288 41.4037 36.7107 41.3684 37.7142 41.0279C38.7176 40.6874 39.5976 40.057 40.2428 39.2164C40.888 38.3758 41.2694 37.3628 41.3389 36.3054C41.4084 35.248 41.1628 34.1938 40.6332 33.276C40.2814 32.6665 39.8131 32.1322 39.2548 31.7037C38.6966 31.2752 38.0594 30.9609 37.3796 30.7787C36.6999 30.5965 35.9909 30.55 35.2931 30.6418C34.5954 30.7337 33.9226 30.9621 33.3132 31.314ZM57.3282 37.128C56.9762 36.726 56.6052 36.323 56.2152 35.919C56.4872 35.631 56.7512 35.344 57.0072 35.058C61.8222 29.646 63.8562 24.216 61.9722 20.955C60.1662 17.826 54.7932 16.893 48.0642 18.201C47.4022 18.331 46.7432 18.477 46.0872 18.639C45.9612 18.207 45.8282 17.777 45.6882 17.349C43.4052 10.47 39.7182 5.997 35.9502 6C32.3382 6 28.8462 10.191 26.6172 16.674C26.3972 17.314 26.1942 17.958 26.0082 18.606C25.5702 18.498 25.1302 18.398 24.6882 18.306C17.5902 16.851 11.8752 17.811 9.99418 21.078C8.19118 24.207 10.0752 29.328 14.5782 34.494C15.0262 35.004 15.4862 35.504 15.9582 35.994C15.4002 36.566 14.8752 37.137 14.3832 37.707C9.98818 42.801 8.21218 47.835 10.0122 50.952C11.8722 54.174 17.5062 55.227 24.3672 53.877C24.9232 53.767 25.4762 53.643 26.0262 53.505C26.2262 54.207 26.4472 54.904 26.6892 55.596C28.9092 61.947 32.3802 66 35.9802 66C39.7002 66 43.4262 61.641 45.6852 55.023C45.8632 54.499 46.0322 53.958 46.1922 53.4C46.9022 53.576 47.6172 53.732 48.3372 53.868C54.9462 55.119 60.1932 54.138 61.9902 51.018C63.8472 47.793 61.9302 42.387 57.3282 37.128ZM12.2142 22.356C13.3722 20.346 18.0432 19.56 24.1722 20.82C24.5642 20.9 24.9632 20.99 25.3692 21.09C24.7704 23.7371 24.3474 26.421 24.1032 29.124C21.8935 30.679 19.7862 32.3745 17.7942 34.2C17.3562 33.746 16.9292 33.281 16.5132 32.805C12.6522 28.383 11.1282 24.243 12.2142 22.356ZM23.8752 39.54C22.3452 38.379 20.9202 37.191 19.6272 35.997C20.9172 34.809 22.3422 33.627 23.8722 32.469C23.8162 33.647 23.7892 34.826 23.7912 36.006C23.7912 37.186 23.8192 38.364 23.8752 39.54ZM23.8752 51.36C21.2752 51.9417 18.59 52.0373 15.9552 51.642C15.233 51.5848 14.5301 51.3805 13.8899 51.0415C13.2496 50.7025 12.6855 50.2361 12.2322 49.671C11.1372 47.781 12.5652 43.737 16.3242 39.381C16.7962 38.835 17.2842 38.303 17.7882 37.785C19.7805 39.6224 21.8921 41.3261 24.1092 42.885C24.3573 45.622 24.7842 48.3398 25.3872 51.021C24.8872 51.147 24.3822 51.261 23.8722 51.363M45.1722 27.246C44.1662 26.612 43.1482 25.999 42.1182 25.407C41.1022 24.823 40.0752 24.26 39.0372 23.718C40.7442 22.9986 42.4853 22.3629 44.2542 21.813C44.6524 23.6072 44.9588 25.4206 45.1722 27.246ZM29.0442 17.505C30.9522 11.955 33.7782 8.565 35.9562 8.565C38.2752 8.562 41.2872 12.219 43.2582 18.156C43.3862 18.544 43.5062 18.934 43.6182 19.326C41.0309 20.1281 38.4993 21.1002 36.0402 22.236C33.5895 21.0856 31.0637 20.1023 28.4802 19.293C28.6542 18.693 28.8422 18.097 29.0442 17.505ZM27.8442 21.777C29.606 22.3298 31.3383 22.9727 33.0342 23.703C30.9302 24.787 28.8822 25.968 26.8902 27.246C27.1302 25.332 27.4512 23.499 27.8442 21.777ZM26.8932 44.757C27.8872 45.395 28.8962 46.008 29.9202 46.596C30.9642 47.196 32.0212 47.772 33.0912 48.324C31.3829 49.079 29.6365 49.7449 27.8592 50.319C27.4456 48.4831 27.1232 46.6278 26.8932 44.76M43.2612 54.198C42.4653 56.74 41.2062 59.113 39.5472 61.197C39.1376 61.7943 38.6101 62.3015 37.9972 62.6875C37.3843 63.0734 36.6989 63.3298 35.9832 63.441C33.7962 63.441 31.0092 60.186 29.1132 54.753C28.8892 54.111 28.6832 53.463 28.4952 52.809C31.0911 51.9727 33.627 50.9603 36.0852 49.779C38.5658 50.9226 41.1182 51.9037 43.7262 52.716C43.5822 53.214 43.4272 53.708 43.2612 54.198ZM44.3472 50.226C42.5543 49.6675 40.7902 49.0207 39.0612 48.288C40.0792 47.754 41.1042 47.189 42.1362 46.593C43.1962 45.981 44.2282 45.354 45.2322 44.712C45.0325 46.564 44.7371 48.4045 44.3472 50.226ZM45.6882 35.997C45.6882 37.819 45.6312 39.639 45.5172 41.457C44.0352 42.461 42.4812 43.433 40.8552 44.373C39.2352 45.307 37.6382 46.163 36.0642 46.941C34.4102 46.149 32.7882 45.295 31.1982 44.379C29.6182 43.469 28.0742 42.5 26.5662 41.472C26.4262 39.652 26.3562 37.83 26.3562 36.006C26.3562 34.184 26.4242 32.363 26.5602 30.543C29.5749 28.4824 32.7421 26.6541 36.0342 25.074C37.6662 25.868 39.2692 26.719 40.8432 27.627C42.4232 28.535 43.9732 29.494 45.4932 30.504C45.6232 32.332 45.6882 34.163 45.6882 35.997ZM48.5562 20.718C54.3222 19.599 58.6662 20.352 59.7552 22.239C60.9162 24.249 59.2542 28.683 55.0932 33.357C54.8632 33.615 54.6252 33.874 54.3792 34.134C52.353 32.3015 50.204 30.6096 47.9472 29.07C47.7203 26.3968 47.3144 23.7419 46.7322 21.123C47.3522 20.971 47.9602 20.836 48.5562 20.718ZM48.1662 32.373C49.6894 33.4836 51.1534 34.6733 52.5522 35.937C51.1597 37.2208 49.7007 38.4305 48.1812 39.561C48.2272 38.373 48.2502 37.185 48.2502 35.997C48.2502 34.789 48.2222 33.581 48.1662 32.373ZM59.7732 49.74C58.6812 51.633 54.4692 52.422 48.8142 51.354C48.1662 51.232 47.5022 51.086 46.8222 50.916C47.3906 48.2633 47.7785 45.5752 47.9832 42.87C50.2353 41.3036 52.3773 39.5845 54.3942 37.725C54.7482 38.091 55.0842 38.455 55.4022 38.817C57.2072 40.7763 58.6342 43.0526 59.6112 45.531C59.9238 46.1844 60.0995 46.8949 60.1274 47.6188C60.1552 48.3426 60.0347 49.0645 59.7732 49.74Z" fill="#FFFFFC"/>
</svg>
