<svg width="48" height="48" viewBox="0 0 48 48" fill="none" xmlns="http://www.w3.org/2000/svg">
<g clip-path="url(#clip0_343_153)">
<path d="M27.2422 44.7859C28.0942 44.1774 29.3113 43.2037 29.9807 42.5951C41.6484 47.2305 45.4551 38.1707 45.1511 34.7129C44.8146 30.8842 40.0606 19.9576 23.8954 19.9573C23.1352 21.7389 20.9125 22.6326 19.0741 21.5677C16.8179 20.2608 16.8179 16.9761 19.0741 15.6693C20.8267 14.654 22.9282 15.4192 23.7792 17.0363C33.5934 16.9864 44.596 21.1547 47.6727 32.7534C49.8918 41.1183 40.582 50.8697 27.2422 44.7859ZM33.2803 32.9553C34.9041 32.7639 36.3115 31.4087 36.3115 29.5723C36.3115 26.9587 33.4611 25.3163 31.193 26.6231C29.2033 27.7695 28.9596 30.4378 30.4608 31.9579C25.0755 41.9983 13.0482 45.9241 6.70134 42.1134C3.18665 40.003 -0.437721 32.4485 8.01215 25.495C7.76869 24.704 7.40353 23.3651 7.221 22.3915C-7.97091 33.8398 2.96484 52.0562 20.094 44.9622C24.7251 43.0443 29.7463 39.6923 33.2802 32.9553M14.7548 36.8422C17.0261 38.149 19.8806 36.5065 19.8806 33.893C19.8806 31.7118 17.8927 30.2086 15.9147 30.5299C3.3509 7.06182 29.8029 -6.87458 33.206 15.3324L36.2487 16.2452C34.0362 -1.61811 20.6799 0.0164196 16.4012 3.63433C13.1945 6.34586 4.62197 15.887 13.4787 32.2306C12.6253 33.7672 13.0506 35.8615 14.7548 36.8422Z" fill="#FFFFFC"/>
</g>
<defs>
<clipPath id="clip0_343_153">
<rect width="48" height="48" fill="white"/>
</clipPath>
</defs>
</svg>
