<svg width="72" height="72" viewBox="0 0 72 72" fill="none" xmlns="http://www.w3.org/2000/svg">
<g clip-path="url(#clip0_343_179)">
<path d="M71.0835 32.1182L56.8935 7.56315C55.6635 5.43315 52.6425 3.68115 50.1735 3.68115H21.8235C19.3635 3.68115 16.3305 5.43315 15.1035 7.56315L0.9225 32.1182C-0.3075 34.2482 -0.3075 37.7372 0.9225 39.8702L15.0975 64.4372C16.3275 66.5672 19.3485 68.3192 21.8175 68.3192H50.1825C52.6425 68.3192 55.6605 66.5672 56.9025 64.4372L71.0805 39.8672C72.3105 37.7372 72.3105 34.2482 71.0805 32.1182H71.0835ZM32.9325 17.2652C32.9325 15.6542 34.2465 14.3402 35.8545 14.3402C37.4625 14.3402 38.7795 15.6542 38.7795 17.2652V34.7282C38.7319 35.4708 38.4033 36.1674 37.8606 36.6764C37.3178 37.1855 36.6016 37.4688 35.8575 37.4688C35.1134 37.4688 34.3972 37.1855 33.8544 36.6764C33.3117 36.1674 32.9831 35.4708 32.9355 34.7282L32.9325 17.2652ZM35.8545 54.5552C30.5988 54.548 25.5605 52.4566 21.8447 48.7397C18.1289 45.0228 16.0391 39.9839 16.0335 34.7282C16.0411 31.6369 16.7679 28.5899 18.1566 25.8282C19.5453 23.0664 21.5577 20.6658 24.0345 18.8162C24.3088 18.6118 24.6208 18.4636 24.9526 18.3801C25.2843 18.2966 25.6293 18.2795 25.9677 18.3296C26.3061 18.3798 26.6312 18.4963 26.9245 18.6725C27.2177 18.8486 27.4733 19.081 27.6765 19.3562C27.8807 19.63 28.0289 19.9415 28.1126 20.2727C28.1963 20.6039 28.2139 20.9484 28.1643 21.2864C28.1147 21.6244 27.9989 21.9493 27.8236 22.2425C27.6482 22.5358 27.4168 22.7915 27.1425 22.9952C24.1371 25.3464 22.1695 28.779 21.6594 32.5606C21.1492 36.3421 22.137 40.1734 24.4118 43.2369C26.6867 46.3005 30.0687 48.3539 33.8362 48.9591C37.6038 49.5642 41.4586 48.6732 44.5785 46.4762C46.4099 45.1136 47.8973 43.3416 48.9219 41.3018C49.9465 39.262 50.4799 37.0108 50.4795 34.7282C50.4728 32.4369 49.9305 30.179 48.8961 28.1345C47.8616 26.0901 46.3636 24.3157 44.5215 22.9532C43.967 22.5421 43.5979 21.9281 43.495 21.2455C43.3921 20.563 43.5638 19.8674 43.9725 19.3112C44.3836 18.7566 44.9976 18.3876 45.6801 18.2847C46.3627 18.1818 47.0582 18.3535 47.6145 18.7622C50.1114 20.6093 52.141 23.0155 53.5408 25.788C54.9406 28.5605 55.6717 31.6223 55.6755 34.7282C55.6715 39.9846 53.5817 45.0246 49.8648 48.7415C46.1479 52.4583 41.1079 54.5482 35.8515 54.5522" fill="#FFFFFC"/>
</g>
<defs>
<clipPath id="clip0_343_179">
<rect width="72" height="72" fill="white"/>
</clipPath>
</defs>
</svg>
