<svg width="48" height="48" viewBox="0 0 48 48" fill="none" xmlns="http://www.w3.org/2000/svg">
<path d="M6.08758 5.91073C6.02403 5.91194 5.96157 5.92742 5.90482 5.95604C5.84807 5.98466 5.79848 6.02568 5.75973 6.07606C5.72098 6.12644 5.69406 6.18489 5.68097 6.24709C5.66787 6.30928 5.66893 6.37363 5.68408 6.43535L14.8318 43.4636C14.8497 43.5357 14.8862 43.6019 14.9377 43.6555C14.9892 43.709 15.0539 43.7481 15.1253 43.7688C15.1967 43.7895 15.2723 43.791 15.3444 43.7732C15.4166 43.7555 15.4828 43.719 15.5365 43.6676L43.0562 17.1964C43.1097 17.1448 43.1487 17.08 43.1693 17.0086C43.1899 16.9372 43.1913 16.8616 43.1735 16.7895C43.1556 16.7173 43.1191 16.6511 43.0676 16.5976C43.016 16.544 42.9513 16.5049 42.88 16.4842L6.2117 5.92723C6.17141 5.91544 6.12955 5.90988 6.08758 5.91073ZM6.68158 6.94348L41.9406 17.0947L15.4783 42.5486L6.68158 6.94348Z" fill="#FFFFFC"/>
<path d="M24.4276 11.19C24.3719 11.1889 24.3164 11.1987 24.2645 11.2189C24.2126 11.2392 24.1652 11.2695 24.125 11.3082L10.3715 24.5475C10.3181 24.5992 10.2791 24.6639 10.2586 24.7353C10.2381 24.8067 10.2368 24.8822 10.2547 24.9543C10.2726 25.0264 10.3091 25.0925 10.3606 25.1461C10.4121 25.1996 10.4767 25.2386 10.5481 25.2593L28.8702 30.54C28.9416 30.5605 29.0171 30.5619 29.0891 30.544C29.1611 30.5261 29.2272 30.4896 29.2807 30.4381C29.3342 30.3867 29.3733 30.3221 29.394 30.2508C29.4147 30.1795 29.4162 30.104 29.3986 30.0319L24.83 11.5118C24.8076 11.4214 24.756 11.3409 24.6833 11.2827C24.6106 11.2246 24.5207 11.192 24.4276 11.19ZM24.1835 12.4275L28.4015 29.5238L11.4875 24.6488L24.1835 12.4275Z" fill="#FFFFFC"/>
<path d="M17.5954 17.7423C17.5318 17.7435 17.4694 17.759 17.4126 17.7876C17.3559 17.8162 17.3063 17.8572 17.2675 17.9076C17.2288 17.958 17.2019 18.0164 17.1888 18.0786C17.1757 18.1408 17.1767 18.2052 17.1919 18.2669L19.4621 27.466C19.4799 27.5383 19.5164 27.6046 19.568 27.6582C19.6195 27.7119 19.6843 27.751 19.7558 27.7716C19.8273 27.7923 19.9029 27.7937 19.9751 27.7758C20.0474 27.7579 20.1136 27.7213 20.1671 27.6696L27.0004 21.0835C27.0538 21.0319 27.0927 20.9671 27.1132 20.8957C27.1336 20.8243 27.135 20.7487 27.1171 20.6766C27.0991 20.6045 27.0626 20.5384 27.011 20.4849C26.9595 20.4314 26.8948 20.3924 26.8234 20.3718L17.7195 17.7588C17.6792 17.747 17.6374 17.7414 17.5954 17.7423ZM18.189 18.7739L25.8848 20.9826L20.1079 26.5499L18.189 18.7739Z" fill="#FFFFFC"/>
<path d="M15.3393 8.5536C15.2835 8.55246 15.2281 8.56235 15.1762 8.58268C15.1242 8.60302 15.0768 8.6334 15.0367 8.6721L8.20341 15.2578C8.15 15.3095 8.11111 15.3743 8.09063 15.4457C8.07016 15.5171 8.06881 15.5926 8.08674 15.6647C8.10467 15.7368 8.14124 15.803 8.19279 15.8565C8.24433 15.91 8.30903 15.949 8.38041 15.9696L17.4828 18.583C17.5542 18.6034 17.6296 18.6047 17.7017 18.5867C17.7737 18.5688 17.8397 18.5323 17.8932 18.4808C17.9467 18.4293 17.9857 18.3646 18.0063 18.2933C18.027 18.222 18.0285 18.1466 18.0108 18.0745L15.7417 8.87572C15.7194 8.78519 15.6679 8.70453 15.5952 8.64622C15.5224 8.58792 15.4325 8.55561 15.3393 8.5536ZM15.0955 9.7911L17.0133 17.5671L9.31941 15.3583L15.0955 9.7911ZM33.5459 13.7976C33.4902 13.7965 33.4349 13.8064 33.383 13.8268C33.3311 13.8471 33.2838 13.8774 33.2437 13.9161L26.4097 20.5015C26.356 20.5531 26.317 20.6179 26.2964 20.6893C26.2758 20.7608 26.2744 20.8365 26.2923 20.9087C26.3103 20.9809 26.3469 21.0471 26.3986 21.1006C26.4503 21.1542 26.5151 21.1931 26.5867 21.2136L35.6894 23.8266C35.7608 23.847 35.8363 23.8483 35.9083 23.8304C35.9803 23.8124 36.0464 23.7759 36.0998 23.7244C36.1533 23.6729 36.1923 23.6083 36.2129 23.537C36.2336 23.4657 36.2351 23.3902 36.2174 23.3181L33.9487 14.1193C33.9263 14.0288 33.8747 13.9482 33.8019 13.89C33.7291 13.8317 33.6391 13.7995 33.5459 13.7976ZM33.3022 15.0351L35.2199 22.8115L27.526 20.6027L33.3022 15.0351ZM19.855 26.9492C19.7512 26.9532 19.6524 26.9953 19.5775 27.0673L12.7443 33.6535C12.6909 33.7051 12.652 33.7699 12.6315 33.8413C12.611 33.9127 12.6097 33.9883 12.6276 34.0604C12.6455 34.1325 12.6821 34.1986 12.7337 34.2521C12.7852 34.3056 12.8499 34.3446 12.9213 34.3652L22.0255 36.9782C22.0968 36.9985 22.1722 36.9997 22.2442 36.9818C22.3161 36.9638 22.3821 36.9273 22.4355 36.8759C22.4889 36.8244 22.5278 36.7599 22.5485 36.6887C22.5691 36.6175 22.5708 36.5421 22.5532 36.4701L20.2825 27.271C20.2591 27.1764 20.2039 27.0927 20.126 27.0341C20.0481 26.9755 19.9524 26.9455 19.855 26.9492ZM19.6368 28.1867L21.556 35.9631L13.8603 33.7543L19.6368 28.1867Z" fill="#FFFFFC"/>
</svg>
