<svg width="72" height="72" viewBox="0 0 72 72" fill="none" xmlns="http://www.w3.org/2000/svg">
<g clip-path="url(#clip0_343_181)">
<mask id="mask0_343_181" style="mask-type:luminance" maskUnits="userSpaceOnUse" x="0" y="0" width="72" height="72">
<path d="M0 0H72V72H0V0Z" fill="white"/>
</mask>
<g mask="url(#mask0_343_181)">
<path d="M70.287 1.05273e-05H1.71C1.48519 1.01813e-05 1.26258 0.0443399 1.05492 0.130463C0.847258 0.216586 0.658616 0.342812 0.499788 0.501918C0.340961 0.661024 0.215066 0.849888 0.129307 1.0577C0.0435476 1.26551 -0.000391772 1.4882 2.63645e-06 1.71301V70.29C-0.000392563 70.5151 0.0436458 70.738 0.129592 70.946C0.215538 71.154 0.341702 71.343 0.500847 71.5022C0.659993 71.6613 0.848989 71.7875 1.057 71.8734C1.26501 71.9594 1.48794 72.0034 1.713 72.003H70.29C70.5151 72.0034 70.738 71.9594 70.946 71.8734C71.154 71.7875 71.343 71.6613 71.5022 71.5022C71.6613 71.343 71.7875 71.154 71.8734 70.946C71.9594 70.738 72.0034 70.5151 72.003 70.29V1.71001C72.003 1.48494 71.9586 1.26209 71.8723 1.05423C71.786 0.846374 71.6595 0.657599 71.5 0.498732C71.3406 0.339865 71.1514 0.214032 70.9432 0.12845C70.7351 0.0428685 70.5121 -0.000779179 70.287 1.05273e-05ZM42.858 38.478H34.287V65.142H27.429V38.478H18.858V32.571H42.858V38.478ZM44.778 63.618V56.493C44.778 56.493 48.672 59.427 53.343 59.427C58.014 59.427 57.834 56.373 57.834 55.953C57.834 51.522 44.598 51.522 44.598 41.7C44.598 28.344 63.885 33.615 63.885 33.615L63.645 39.963C63.645 39.963 60.411 37.806 56.757 37.806C53.103 37.806 51.786 39.546 51.786 41.4C51.786 46.191 65.142 45.714 65.142 55.356C65.142 70.206 44.778 63.621 44.778 63.621" fill="#FFFFFC"/>
</g>
</g>
<defs>
<clipPath id="clip0_343_181">
<rect width="72" height="72" fill="white"/>
</clipPath>
</defs>
</svg>
