<svg width="72" height="72" viewBox="0 0 72 72" fill="none" xmlns="http://www.w3.org/2000/svg">
<path d="M11.001 36C10.9988 40.6954 12.3194 45.2965 14.8116 49.2759C17.3038 53.2554 20.8667 56.4522 25.092 58.5L13.164 25.821C11.7341 29.0238 10.997 32.4925 11.001 36ZM36.441 38.187L28.938 59.982C33.974 61.464 39.3487 61.3244 44.301 59.583C44.2336 59.472 44.1735 59.3568 44.121 59.238L36.441 38.187ZM52.878 34.737C52.8427 32.2925 52.1292 29.9058 50.817 27.843C49.4728 26.1532 48.6224 24.1243 48.36 21.981C48.3301 20.8358 48.7554 19.7255 49.5426 18.8932C50.3299 18.061 51.4149 17.5747 52.56 17.541C52.67 17.545 52.777 17.553 52.881 17.565C50.2123 15.1195 47.0442 13.283 43.5958 12.1824C40.1475 11.0818 36.5012 10.7435 32.9092 11.1909C29.3172 11.6382 25.8653 12.8606 22.7923 14.7733C19.7192 16.6861 17.0983 19.2436 15.111 22.269C15.699 22.287 16.251 22.299 16.722 22.299C19.335 22.299 23.382 21.981 23.382 21.981C23.6473 21.9736 23.9054 22.0684 24.1028 22.2459C24.3002 22.4233 24.4219 22.6699 24.4427 22.9345C24.4635 23.1991 24.3818 23.4616 24.2146 23.6678C24.0473 23.8739 23.8072 24.0079 23.544 24.042C23.544 24.042 22.188 24.198 20.682 24.279L29.787 51.357L35.259 34.947L31.362 24.279C30.015 24.198 28.74 24.039 28.74 24.039C28.482 23.9994 28.2485 23.8637 28.0863 23.6592C27.9241 23.4547 27.8451 23.1965 27.8652 22.9363C27.8853 22.676 28.003 22.433 28.1947 22.2558C28.3864 22.0787 28.638 21.9805 28.899 21.981C28.899 21.981 33.027 22.299 35.484 22.299C38.097 22.299 42.147 21.981 42.147 21.981C42.2823 21.9706 42.4184 21.9869 42.5474 22.029C42.6764 22.0712 42.7959 22.1383 42.899 22.2266C43.002 22.3149 43.0867 22.4227 43.1481 22.5437C43.2096 22.6647 43.2466 22.7967 43.257 22.932C43.2674 23.0673 43.2511 23.2034 43.209 23.3324C43.1668 23.4614 43.0997 23.5809 43.0114 23.684C42.9231 23.787 42.8153 23.8717 42.6943 23.9331C42.5733 23.9946 42.4413 24.0316 42.306 24.042C42.306 24.042 40.95 24.198 39.447 24.279L48.48 51.153L51.06 42.978C52.068 40.338 52.68 37.557 52.878 34.737ZM58.107 26.58C58.061 29.6602 57.415 32.702 56.205 35.535L48.57 57.612C54.2016 54.3361 58.332 48.9914 60.0819 42.7158C61.8318 36.4401 61.063 29.7292 57.939 24.012C58.051 24.864 58.107 25.72 58.107 26.58ZM36 6C19.431 6 6 19.431 6 36C6 52.569 19.431 66 36 66C52.569 66 66 52.569 66 36C66 19.431 52.569 6 36 6ZM46.977 61.986C42.6556 63.8139 37.946 64.5334 33.2759 64.0792C28.6058 63.6249 24.1232 62.0114 20.235 59.385C15.6998 56.3244 12.1495 52.0144 10.014 46.977C8.18612 42.6556 7.46662 37.946 7.92084 33.2759C8.37507 28.6058 9.98862 24.1232 12.615 20.235C15.676 15.7009 19.986 12.1516 25.023 10.017C29.3442 8.18868 34.0536 7.46869 38.7237 7.92239C43.3938 8.37609 47.8765 9.98911 51.765 12.615C56.3002 15.6756 59.8505 19.9856 61.986 25.023C63.8139 29.3444 64.5334 34.054 64.0792 38.7241C63.6249 43.3942 62.0114 47.8768 59.385 51.765C56.3244 56.3002 52.0144 59.8505 46.977 61.986Z" fill="#FFFFFC"/>
</svg>
