<svg width="1193" height="1060" viewBox="0 0 1193 1060" fill="none" xmlns="http://www.w3.org/2000/svg">
<mask id="mask0_265_562" style="mask-type:alpha" maskUnits="userSpaceOnUse" x="4" y="7" width="1182" height="1027">
<path d="M4.7522 1011.91L185.074 14.5568C186.205 8.30025 193.83 5.79964 198.447 10.1713L500.892 296.572C503.783 299.309 508.248 299.504 511.366 297.029L873.438 9.64C878.444 5.66709 885.857 8.87684 886.385 15.2454L909.551 294.819C910.028 300.58 904.425 304.93 898.961 303.039L797.037 267.763C793.112 266.405 788.8 268.276 787.111 272.07L683.772 504.287L1062.46 465.917L1184.99 1023.47C1186.84 1031.9 1175.89 1036.88 1170.75 1029.96L876.097 633.042C874.502 630.894 871.939 629.685 869.267 629.821L519.891 647.581C517.11 647.723 514.455 646.407 512.882 644.109L460.906 568.134C458.033 563.933 452.019 563.449 448.51 567.134L18.4184 1018.85C12.9432 1024.6 3.33954 1019.72 4.7522 1011.91Z" fill="#FF0000"/>
<path d="M683.427 505.062L787.111 272.07C788.8 268.276 793.112 266.405 797.037 267.763L898.961 303.039C904.425 304.93 910.028 300.58 909.551 294.819L886.385 15.2454C885.857 8.87684 878.444 5.66709 873.438 9.64L511.366 297.029C508.248 299.504 503.783 299.309 500.892 296.572L198.447 10.1713C193.83 5.79964 186.205 8.30025 185.074 14.5568L4.7522 1011.91C3.33954 1019.72 12.9432 1024.6 18.4184 1018.85L448.51 567.134C452.019 563.449 458.033 563.933 460.906 568.134L512.882 644.109C514.455 646.407 517.11 647.723 519.891 647.581L869.267 629.821C871.939 629.685 874.502 630.894 876.097 633.042L1170.75 1029.96C1175.89 1036.88 1186.84 1031.9 1184.99 1023.47L1062.43 465.785M682.841 504.381L1062.98 465.864" stroke="#EBEBEB"/>
</mask>
<g mask="url(#mask0_265_562)">
<rect x="-130" y="-8" width="1453" height="1120" fill="url(#paint0_linear_265_562)" fill-opacity="1"/>
</g>
<defs>
<linearGradient id="paint0_linear_265_562" x1="597.099" y1="389.967" x2="589.063" y2="1112.06" gradientUnits="userSpaceOnUse">
<stop stop-color="#FF7F11"/>
<stop offset="1" stop-color="#FFFFFC"/>
</linearGradient>
</defs>
</svg>
